<svg fill="none" height="48" viewBox="0 0 27 48" width="27" xmlns="http://www.w3.org/2000/svg"><g fill="#079455"><path clip-rule="evenodd" d="m12.0039 5h14.9961v5.7613h-5.3011c.8534 1.5661 1.3383 3.3619 1.3383 5.271 0 6.0929-4.9393 11.0322-11.0323 11.0322-6.09293 0-11.032244-4.9393-11.032244-11.0322 0-6.09265 4.938764-11.03176 11.031244-11.0323zm.001 16.3032c2.9111 0 5.271-2.3599 5.271-5.2709 0-2.9111-2.3599-5.271-5.271-5.271h-.001c-2.91061.0005-5.26995 2.3602-5.26995 5.271 0 2.911 2.35989 5.2709 5.27095 5.2709z" fill-rule="evenodd"/><path d="m12.0044 42.9997c-2.05544 0-3.91815-.3845-5.58816-1.1537-1.67-.7371-3.0028-1.7786-3.99838-3.1246-.96347-1.346-1.445204-2.8842-1.445204-4.6148 0-1.346.192694-2.4516.578084-3.3169.38538-.8653.96346-1.6985 1.73424-2.4997l4.76916 3.0766c-.32116.2884-.56202.6249-.7226 1.0095-.16058.3845-.24087.8652-.24087 1.4421 0 1.0575.43356 1.8908 1.30068 2.4997.88996.6343 2.09445.9547 3.61355.9613 1.5191-.0066 2.7236-.327 3.6136-.9613.8671-.6089 1.3007-1.4422 1.3007-2.4997 0-.5769-.0803-1.0576-.2409-1.4421-.1606-.3846-.4015-.7211-.7226-1.0095l4.7692-3.0766c.7707.8012 1.3488 1.6344 1.7342 2.4997s.5781 1.9709.5781 3.3169c0 1.7306-.4818 3.2688-1.4452 4.6148-.9956 1.346-2.3284 2.3875-3.9984 3.1246-1.67.7692-3.5338 1.1537-5.5892 1.1537z" opacity=".7"/></g></svg>